<svg width="146" height="117" viewBox="0 0 146 117" fill="none" xmlns="http://www.w3.org/2000/svg">
<g clip-path="url(#clip0_385_119)">
<path d="M59.0162 117C54.4605 117 50.3418 115.948 46.6492 113.832C42.9566 111.716 40.0506 108.855 37.953 105.238C35.8445 101.62 34.7957 97.564 34.7957 93.0804V47.6968C34.7957 44.3313 33.8016 41.6017 31.8351 39.486C29.8577 37.3703 27.3231 36.3179 24.2314 36.3179C21.1396 36.3179 18.5832 37.3813 16.5621 39.486C14.541 41.6017 13.5359 44.3313 13.5359 47.6968V115.707H0V48.3435C0 43.6846 1.04879 39.508 3.15729 35.8027C5.26579 32.0975 8.16088 29.1925 11.8535 27.0768C15.5461 24.9611 19.6648 23.9087 24.2204 23.9087C28.7761 23.9087 32.8729 24.972 36.5328 27.0768C40.1817 29.1925 43.0549 32.0975 45.1634 35.8027C47.2719 39.508 48.3207 43.6955 48.3207 48.3435V93.7272C48.3207 97.0049 49.304 99.6139 51.2814 101.554C53.2588 103.495 55.837 104.459 59.0162 104.459C62.1953 104.459 64.6425 103.495 66.6199 101.554C68.5973 99.6139 69.5805 97.0049 69.5805 93.7272V25.2022H83.1055V93.0914C83.1055 97.575 82.0458 101.62 79.9482 105.249C77.8397 108.866 74.9665 111.738 71.3176 113.843C67.6687 115.959 63.5609 117.011 59.0052 117.011L59.0162 117Z" fill="#231916"/>
<path d="M114.427 85.9659C108.757 85.9659 103.513 84.5847 98.7062 81.8332C93.8993 79.0707 90.0865 75.3216 87.3007 70.5859C84.5039 65.8502 83.1165 60.6322 83.1165 54.9428C83.1165 49.2534 84.5148 44.0354 87.3007 39.2997C90.0865 34.564 93.8884 30.8039 98.7062 28.0524C103.513 25.2899 108.757 23.9087 114.427 23.9087H114.689C120.447 23.9087 125.702 25.2899 130.476 28.0524C135.25 30.8149 139.019 34.564 141.816 39.2997C144.602 44.0354 146 49.2534 146 54.9428C146 60.6322 144.602 65.8502 141.816 70.5859C139.019 75.3326 135.239 79.0817 130.476 81.8332C125.713 84.5957 120.447 85.9659 114.689 85.9659H114.427ZM114.689 73.0415C117.956 73.0415 120.96 72.2193 123.713 70.5859C126.466 68.9525 128.629 66.7272 130.224 63.9209C131.809 61.1255 132.606 58.1218 132.606 54.9318C132.606 51.7418 131.809 48.6395 130.224 45.877C128.629 43.1145 126.466 40.9221 123.713 39.2778C120.96 37.6444 117.956 36.8222 114.689 36.8222H114.427C111.161 36.8222 108.156 37.6225 105.403 39.212C102.65 40.8125 100.487 43.0049 98.892 45.8113C97.2969 48.6176 96.5103 51.6541 96.5103 54.9318C96.5103 58.2095 97.3079 61.2242 98.892 63.9866C100.476 66.7491 102.65 68.9416 105.403 70.5859C108.156 72.2303 111.161 73.0415 114.427 73.0415H114.689Z" fill="#231916"/>
<path d="M99.7879 18.3727C97.9416 18.8002 96.281 18.57 94.7952 17.6711C93.3094 16.7722 92.3699 15.4896 91.9875 13.8124C91.6052 12.1352 91.8783 10.5895 92.8397 9.1644C93.7901 7.75027 95.1885 6.82944 97.0348 6.40191L123.648 0.230173C125.571 -0.219279 127.275 -0.0109965 128.75 0.844058C130.225 1.69911 131.153 2.95977 131.546 4.64796C131.951 6.41288 131.678 8.0024 130.727 9.41653C129.777 10.8307 128.335 11.7625 126.412 12.2119L99.7988 18.3836L99.7879 18.3727Z" fill="#9810FA"/>
</g>
<defs>
<clipPath id="clip0_385_119">
<rect width="146" height="117" fill="white"/>
</clipPath>
</defs>
</svg>
